<?xml version="1.0" standalone="no"?><!DOCTYPE svg PUBLIC "-//W3C//DTD SVG 1.1//EN" "http://www.w3.org/Graphics/SVG/1.1/DTD/svg11.dtd"><svg t="1515383237411" class="icon" style="" viewBox="0 0 1024 1024" version="1.1" xmlns="http://www.w3.org/2000/svg" p-id="2869" xmlns:xlink="http://www.w3.org/1999/xlink" width="32" height="32"><defs><style type="text/css"></style></defs><path d="M66.3552 68.266667C66.423467 68.266667 68.266667 66.56 68.266667 62.122667v834.082133c0-4.437333-1.8432-6.144-1.911467-6.144h890.948267c-0.068267 0-1.911467 1.706667-1.911467 6.144V62.122667c0 4.437333 1.8432 6.144 1.911467 6.144H66.423467z m890.948267-68.266667c36.6592 0 66.3552 27.784533 66.3552 62.122667v834.082133c0 34.338133-29.696 62.122667-66.3552 62.122667H66.423467c-36.727467 0-66.423467-27.784533-66.423467-62.122667V62.122667C0 27.784533 29.696 0 66.3552 0h890.948267z" fill="#d81e06" p-id="2870"></path><path d="M750.455467 702.532267c18.8416 0 34.133333 14.336 34.133333 31.880533 0 17.6128-15.291733 31.880533-34.133333 31.880533H614.1952c-18.773333 0-34.065067-14.267733-34.065067-31.880533V606.890667c0-17.6128 15.291733-31.880533 34.133334-31.880534 18.773333 0 33.9968 14.267733 33.9968 31.880534v54.8864c61.576533-40.277333 102.1952-106.769067 102.1952-182.4768 0-123.2896-106.769067-223.232-238.455467-223.232-18.773333 0-34.065067-14.267733-34.065067-31.880534s15.291733-31.880533 34.133334-31.880533c169.301333 0 306.517333 128.477867 306.517333 286.993067 0 90.385067-44.919467 170.666667-114.688 223.232h46.557867zM512 766.293333c-169.301333 0-306.517333-128.477867-306.517333-286.993066 0-90.385067 44.8512-170.666667 114.688-223.232h-46.557867c-18.8416 0-34.133333-14.267733-34.133333-31.880534s15.291733-31.880533 34.133333-31.880533h136.192c18.8416 0 34.133333 14.336 34.133333 31.880533v127.5904c0 17.6128-15.291733 31.880533-34.133333 31.880534-18.773333 0-33.9968-14.336-33.9968-31.880534v-54.954666c-61.576533 40.3456-102.1952 106.769067-102.1952 182.4768 0 123.2896 106.7008 223.232 238.3872 223.232 18.8416 0 34.133333 14.336 34.133333 31.880533 0 17.6128-15.291733 31.880533-34.133333 31.880533z" fill="#d81e06" p-id="2871"></path></svg>