<?xml version="1.0" standalone="no"?><!DOCTYPE svg PUBLIC "-//W3C//DTD SVG 1.1//EN" "http://www.w3.org/Graphics/SVG/1.1/DTD/svg11.dtd"><svg t="1515383398127" class="icon" style="" viewBox="0 0 1024 1024" version="1.1" xmlns="http://www.w3.org/2000/svg" p-id="4179" xmlns:xlink="http://www.w3.org/1999/xlink" width="32" height="32"><defs><style type="text/css"></style></defs><path d="M924.9 651.3H821.7v-91.6H531v-92.4h172.8c19.3 0 35.1-15.8 35.1-35.1V120.3c0-19.3-15.8-35.1-35.1-35.1H320.2c-19.3 0-35.1 15.7-35.1 35.1v311.8c0 19.3 15.7 35.1 35.1 35.1H493v92.4H202.3v91.6H99.1C79.8 651.2 64 667 64 686.3v217.3c0 19.3 15.7 35.1 35.1 35.1h244.4c19.3 0 35.1-15.8 35.1-35.1V686.4c0-19.3-15.7-35.1-35.1-35.1H240.3v-53.6h543.4v53.6H680.5c-19.4 0-35.1 15.8-35.1 35.1v217.3c0 19.3 15.8 35.1 35.1 35.1h244.4c19.3 0 35.1-15.8 35.1-35.1V686.4c0-19.3-15.8-35.1-35.1-35.1z m-604.7-528l380.6-2.9v309l-377.7 2.9-2.9-309z m20.4 777.5L102 903.7l-2.9-214.3 241.5-2.9v214.3z m581.4 0l-238.6 2.9-2.9-214.3 241.5-2.9v214.3z" fill="#d81e06" p-id="4180"></path></svg>