<?xml version="1.0" standalone="no"?><!DOCTYPE svg PUBLIC "-//W3C//DTD SVG 1.1//EN" "http://www.w3.org/Graphics/SVG/1.1/DTD/svg11.dtd"><svg t="1515383571897" class="icon" style="" viewBox="0 0 1024 1024" version="1.1" xmlns="http://www.w3.org/2000/svg" p-id="8230" xmlns:xlink="http://www.w3.org/1999/xlink" width="32" height="32"><defs><style type="text/css"></style></defs><path d="M513.325693 806.780747c179.424462 0 324.825017-64.658625 324.825017-144.534837 0-69.511143-110.029976-127.497812-256.763898-141.41273l0-72.832795c75.153654-27.692712 128.755456-99.95041 128.755456-184.76919 0-108.675118-88.10257-196.779735-196.778712-196.779735-108.742656 0-196.848297 88.104617-196.848297 196.779735 0 84.037998 52.626591 155.735947 126.725216 183.983291l0 73.814146c-145.714709 14.256702-254.734682 72.027453-254.734682 141.217279C188.506816 742.122121 333.907371 806.780747 513.325693 806.780747z" p-id="8231" fill="#d81e06"></path><path d="M513.325693 846.450235c-179.418322 0-324.8199-64.658625-324.8199-144.532791 0 33.314757 0 55.591109 0 110.516046 0 79.875189 145.401578 144.565537 324.8199 144.565537 179.424462 0 324.825017-64.691371 324.825017-144.565537 0-29.336142 0-59.941184 0-110.516046C838.15071 781.792633 692.750155 846.450235 513.325693 846.450235z" p-id="8232" fill="#d81e06"></path></svg>