<?xml version="1.0" standalone="no"?><!DOCTYPE svg PUBLIC "-//W3C//DTD SVG 1.1//EN" "http://www.w3.org/Graphics/SVG/1.1/DTD/svg11.dtd"><svg t="1515383280748" class="icon" style="" viewBox="0 0 1468 1024" version="1.1" xmlns="http://www.w3.org/2000/svg" p-id="3587" xmlns:xlink="http://www.w3.org/1999/xlink" width="45.875" height="32"><defs><style type="text/css"></style></defs><path d="M1467.8 392h-9c-0.4 0-0.8-0.3-0.8-0.8v-14.5c0-0.4 0.3-0.8 0.8-0.8h9c0.4 0 0.8 0.3 0.8 0.8v14.5c-0.1 0.5-0.4 0.8-0.8 0.8z m-8.8-1h8v-14h-8v14z" fill="#d81e06" p-id="3588"></path><path d="M930 64H570c-16.6 0-30 13.4-30 30v225.2h-66v-97.4c0-16.6-13.4-30-30-30H94c-16.6 0-30 13.4-30 30v580.7c0 16.6 13.4 30 30 30h262.9V930c0 16.6 13.4 30 30 30h350c16.6 0 30-13.4 30-30V704.8H930c16.6 0 30-13.4 30-30v-580.7c0-16.6-13.5-30.1-30-30.1zM124 772.4v-520.6h290v67.4h-27.1c-16.6 0-30 13.4-30 30v423.2H124z m292.9 127.5V379.2h290v265.4H463v60.1h243.9v60.1H463v60.1h243.9v75h-290zM900 644.8h-133.1V349.2c0-16.6-13.4-30-30-30H600v-195h300v520.6z" fill="#d81e06" p-id="3589"></path></svg>