<?xml version="1.0" standalone="no"?><!DOCTYPE svg PUBLIC "-//W3C//DTD SVG 1.1//EN" "http://www.w3.org/Graphics/SVG/1.1/DTD/svg11.dtd"><svg t="1515383083947" class="icon" style="" viewBox="0 0 1024 1024" version="1.1" xmlns="http://www.w3.org/2000/svg" p-id="1347" xmlns:xlink="http://www.w3.org/1999/xlink" width="32" height="32"><defs><style type="text/css"></style></defs><path d="M735.828 320.716l-89.77-145.268-60.7 159.614-165.895 40.485 133.045 107.053-12.762 170.289 142.923-93.452 158.016 64.757-44.714-164.81 110.418-130.266z" p-id="1348" fill="#d81e06"></path><path d="M230.287 277.091l88.563-42.446 85.179 48.892-13.003-97.347 72.82-65.898-96.601-17.715-40.173-89.62-46.7 86.397-97.646 10.511 67.737 71.111z" p-id="1349" fill="#d81e06"></path><path d="M991.238 148.677l-38.207-7.008-15.892-35.45-18.469 34.174-38.624 4.157 26.793 28.126-7.981 38.017 35.028-16.788 33.692 19.338-5.141-38.503z" p-id="1350" fill="#d81e06"></path><path d="M457.334 501.782l-413.083 413.081c-15.325 15.326-15.325 40.176 0.001 55.501l26.731 26.731c15.326 15.326 40.175 15.326 55.499 0l368.553-368.553v-136.937c-13.040-3.407-27.484-0.041-37.701 10.176z" p-id="1351" fill="#d81e06"></path></svg>