<?xml version="1.0" standalone="no"?><!DOCTYPE svg PUBLIC "-//W3C//DTD SVG 1.1//EN" "http://www.w3.org/Graphics/SVG/1.1/DTD/svg11.dtd"><svg t="1515383814463" class="icon" style="" viewBox="0 0 1024 1024" version="1.1" xmlns="http://www.w3.org/2000/svg" p-id="11563" xmlns:xlink="http://www.w3.org/1999/xlink" width="32" height="32"><defs><style type="text/css"></style></defs><path d="M381.244128 1023.99L126.908376 706.29531s-12.849987-118.536884 101.720901-68.603933c66.109935 29.666971 89.702912 91.93991 89.702912 91.93991l2.364998-483.927527s68.346933-101.9129 127.806875 0l1.086999 306.379701s73.908928-100.571902 160.860843 7.031993c0 0 65.214936-109.585893 156.834847 5.306995 0 0 64.957937-126.719876 130.171873 10.996989v384.635624s-3.771996 29.984971-56.646945 63.934938H381.244128z" p-id="11564" fill="#d81e06"></path><path d="M383.481126 0C241.608264 0 126.524376 115.083888 126.524376 256.956749c0 95.198907 52.363949 177.356827 129.279874 221.727784v-79.407923c-39.769961-35.229966-65.343936-86.056916-65.343936-143.34286 0-106.004896 85.992916-191.998813 191.997813-191.998812s191.997813 85.993916 191.997812 191.998812c0 56.134945-24.549976 106.196896-62.911939 141.297862v81.259921c76.659925-44.497957 128.893874-126.526876 128.893875-221.534784C640.437875 115.083888 525.354987 0 383.480126 0z" p-id="11565" fill="#d81e06"></path></svg>