<?xml version="1.0" standalone="no"?><!DOCTYPE svg PUBLIC "-//W3C//DTD SVG 1.1//EN" "http://www.w3.org/Graphics/SVG/1.1/DTD/svg11.dtd"><svg t="1515383634111" class="icon" style="" viewBox="0 0 1024 1024" version="1.1" xmlns="http://www.w3.org/2000/svg" p-id="9595" xmlns:xlink="http://www.w3.org/1999/xlink" width="32" height="32"><defs><style type="text/css"></style></defs><path d="M244.591671 429.694459c53.040007 0 96.190783-43.150776 96.190783-96.190783s-43.150776-96.190783-96.190783-96.190783-96.190783 43.150776-96.190783 96.190783S191.551664 429.694459 244.591671 429.694459zM244.591671 268.01208c36.112476 0 65.491597 29.379121 65.491597 65.491597s-29.379121 65.491597-65.491597 65.491597-65.491597-29.379121-65.491597-65.491597S208.479195 268.01208 244.591671 268.01208z" p-id="9596" fill="#d81e06"></path><path d="M691.77648 501.056764 691.77648 125.959783l-622.170169 0 0 771.385609 622.170169 0L691.77648 503.06142l1.003863-0.934279C692.444698 501.766938 692.111101 501.414921 691.77648 501.056764zM661.077294 156.658969l0 314.411853c-52.281737-46.12348-100.765985-62.97017-144.507208-50.083675-79.322603 23.37129-115.65509 138.382721-127.746476 187.54542-76.556607-46.665833-143.853315-58.9496-200.271256-36.501332-41.739637 16.609283-69.89079 49.2681-88.245833 80.201623L100.30652 156.658969 661.077294 156.658969zM100.305497 866.646206 100.305497 730.905662c2.970658-11.541871 28.383444-102.121865 99.742678-130.408095 51.017954-20.222577 115.118877-4.882194 190.524265 45.590338l19.527752 13.07069 4.121877-23.133883c0.072655-0.409322 7.522324-41.548278 25.703405-85.543282 16.07921-38.910195 43.934628-87.852884 85.320201-100.0466 38.129412-11.232832 83.786265 9.954723 135.831618 62.957891l0 353.253486L100.305497 866.646206z" p-id="9597" fill="#d81e06"></path><path d="M765.453503 158.612461l188.288341 0 0 30.699186-188.288341 0 0-30.699186Z" p-id="9598" fill="#d81e06"></path><path d="M765.453503 383.739824l188.288341 0 0 30.699186-188.288341 0 0-30.699186Z" p-id="9599" fill="#d81e06"></path><path d="M765.453503 608.867188l188.288341 0 0 30.699186-188.288341 0 0-30.699186Z" p-id="9600" fill="#d81e06"></path><path d="M765.453503 833.994552l188.288341 0 0 30.699186-188.288341 0 0-30.699186Z" p-id="9601" fill="#d81e06"></path></svg>